<mxfile host="Electron" agent="Mozilla/5.0 (X11; Linux x86_64) AppleWebKit/537.36 (KHTML, like Gecko) draw.io/27.0.9 Chrome/134.0.6998.205 Electron/35.4.0 Safari/537.36" version="27.0.9">
  <diagram name="Page-1" id="aSCsJ7SQcSlIBMJyjBea">
    <mxGraphModel dx="1042" dy="639" grid="1" gridSize="10" guides="1" tooltips="1" connect="1" arrows="1" fold="1" page="1" pageScale="1" pageWidth="850" pageHeight="1100" math="0" shadow="0">
      <root>
        <mxCell id="0" />
        <mxCell id="1" parent="0" />
        <mxCell id="5VhwWWGpiWdkqpMTI2WD-1" value="" style="endArrow=none;html=1;rounded=0;shadow=1;" edge="1" parent="1">
          <mxGeometry width="50" height="50" relative="1" as="geometry">
            <mxPoint x="140" y="320" as="sourcePoint" />
            <mxPoint x="470" y="320" as="targetPoint" />
          </mxGeometry>
        </mxCell>
        <mxCell id="5VhwWWGpiWdkqpMTI2WD-16" value="Bus" style="edgeLabel;html=1;align=center;verticalAlign=middle;resizable=0;points=[];" vertex="1" connectable="0" parent="5VhwWWGpiWdkqpMTI2WD-1">
          <mxGeometry x="0.4036" y="-1" relative="1" as="geometry">
            <mxPoint x="118" y="-1" as="offset" />
          </mxGeometry>
        </mxCell>
        <mxCell id="5VhwWWGpiWdkqpMTI2WD-7" value="Boitier processeur" style="swimlane;whiteSpace=wrap;html=1;" vertex="1" parent="1">
          <mxGeometry x="120" y="70" width="120" height="210" as="geometry" />
        </mxCell>
        <mxCell id="5VhwWWGpiWdkqpMTI2WD-5" value="Puce du processeur" style="rounded=1;whiteSpace=wrap;html=1;fillColor=#f5f5f5;fontColor=#333333;strokeColor=#666666;shadow=1;" vertex="1" parent="5VhwWWGpiWdkqpMTI2WD-7">
          <mxGeometry x="25" y="40" width="70" height="50" as="geometry" />
        </mxCell>
        <mxCell id="5VhwWWGpiWdkqpMTI2WD-8" value="MMU" style="rounded=1;whiteSpace=wrap;html=1;fillColor=#f5f5f5;fontColor=#333333;strokeColor=#666666;shadow=1;" vertex="1" parent="5VhwWWGpiWdkqpMTI2WD-7">
          <mxGeometry x="25" y="140" width="70" height="50" as="geometry" />
        </mxCell>
        <mxCell id="5VhwWWGpiWdkqpMTI2WD-9" value="" style="endArrow=none;html=1;rounded=0;exitX=0.5;exitY=1;exitDx=0;exitDy=0;startFill=0;shadow=1;" edge="1" parent="5VhwWWGpiWdkqpMTI2WD-7" source="5VhwWWGpiWdkqpMTI2WD-5" target="5VhwWWGpiWdkqpMTI2WD-8">
          <mxGeometry width="50" height="50" relative="1" as="geometry">
            <mxPoint x="290" y="290" as="sourcePoint" />
            <mxPoint x="340" y="240" as="targetPoint" />
          </mxGeometry>
        </mxCell>
        <mxCell id="5VhwWWGpiWdkqpMTI2WD-10" value="Addresse virtuelle" style="edgeLabel;html=1;align=center;verticalAlign=middle;resizable=0;points=[];" vertex="1" connectable="0" parent="5VhwWWGpiWdkqpMTI2WD-9">
          <mxGeometry x="-0.064" y="1" relative="1" as="geometry">
            <mxPoint x="-1" y="-3" as="offset" />
          </mxGeometry>
        </mxCell>
        <mxCell id="5VhwWWGpiWdkqpMTI2WD-11" value="" style="endArrow=oval;html=1;rounded=0;endFill=1;shadow=1;" edge="1" parent="1">
          <mxGeometry width="50" height="50" relative="1" as="geometry">
            <mxPoint x="180" y="260" as="sourcePoint" />
            <mxPoint x="180" y="320" as="targetPoint" />
          </mxGeometry>
        </mxCell>
        <mxCell id="5VhwWWGpiWdkqpMTI2WD-12" value="Addresse physique" style="edgeLabel;html=1;align=center;verticalAlign=middle;resizable=0;points=[];" vertex="1" connectable="0" parent="5VhwWWGpiWdkqpMTI2WD-11">
          <mxGeometry x="0.135" y="2" relative="1" as="geometry">
            <mxPoint as="offset" />
          </mxGeometry>
        </mxCell>
        <mxCell id="5VhwWWGpiWdkqpMTI2WD-13" value="MÃ©moire" style="rounded=1;whiteSpace=wrap;html=1;fillColor=#f5f5f5;fontColor=#333333;strokeColor=#666666;shadow=1;" vertex="1" parent="1">
          <mxGeometry x="270" y="210" width="70" height="50" as="geometry" />
        </mxCell>
        <mxCell id="5VhwWWGpiWdkqpMTI2WD-15" value="Controlleur de disque" style="rounded=1;whiteSpace=wrap;html=1;fillColor=#f5f5f5;fontColor=#333333;strokeColor=#666666;shadow=1;" vertex="1" parent="1">
          <mxGeometry x="390" y="210" width="70" height="50" as="geometry" />
        </mxCell>
        <mxCell id="5VhwWWGpiWdkqpMTI2WD-17" value="" style="endArrow=oval;html=1;rounded=0;exitX=0.5;exitY=1;exitDx=0;exitDy=0;endFill=1;shadow=1;" edge="1" parent="1" source="5VhwWWGpiWdkqpMTI2WD-13">
          <mxGeometry width="50" height="50" relative="1" as="geometry">
            <mxPoint x="305" y="240" as="sourcePoint" />
            <mxPoint x="305" y="320" as="targetPoint" />
          </mxGeometry>
        </mxCell>
        <mxCell id="5VhwWWGpiWdkqpMTI2WD-20" value="" style="endArrow=oval;html=1;rounded=0;endFill=1;exitX=0.5;exitY=1;exitDx=0;exitDy=0;shadow=1;" edge="1" parent="1" source="5VhwWWGpiWdkqpMTI2WD-15">
          <mxGeometry width="50" height="50" relative="1" as="geometry">
            <mxPoint x="430" y="270" as="sourcePoint" />
            <mxPoint x="425" y="320" as="targetPoint" />
          </mxGeometry>
        </mxCell>
      </root>
    </mxGraphModel>
  </diagram>
</mxfile>
